<svg xmlns="http://www.w3.org/2000/svg" xmlns:xlink="http://www.w3.org/1999/xlink" viewBox="0 0 192 192" height="100" width="100"><defs><style>.a{fill:none;}.b{clip-path:url(#a);}.c{fill:#db4437;}.d{fill:url(#b);}.e,.s,.u{fill:#3e2723;}.e,.h,.t{fill-opacity:0.1;}.f{fill:#0f9d58;}.g{fill:url(#e);}.h{fill:#263238;}.i{clip-path:url(#h);}.j{fill:#ffcd40;}.k{fill:url(#i);}.l{clip-path:url(#m);}.m{fill:url(#p);}.n{clip-path:url(#r);}.o{fill:url(#u);}.p{fill:url(#w);}.q{fill:#f1f1f1;}.r{fill:#4285f4;}.s,.v{fill-opacity:0.2;}.t,.v{fill:#fff;}.u{opacity:0.1;isolation:isolate;}.w{fill:url(#aa);}</style><clipPath id="a"><circle class="a" cx="96" cy="96" r="88"/></clipPath><linearGradient id="b" x1="29.28" y1="117.03" x2="81.78" y2="147.63" gradientTransform="matrix(1, 0, 0, -1, 0, 192)" gradientUnits="userSpaceOnUse"><stop offset="0" stop-color="#a52714" stop-opacity="0.6"/><stop offset="0.7" stop-color="#a52714" stop-opacity="0"/></linearGradient><linearGradient id="e" x1="110.9" y1="27.49" x2="52.5" y2="61.69" gradientTransform="matrix(1, 0, 0, -1, 0, 192)" gradientUnits="userSpaceOnUse"><stop offset="0" stop-color="#055524" stop-opacity="0.4"/><stop offset="0.3" stop-color="#055524" stop-opacity="0"/></linearGradient><clipPath id="h"><polygon class="a" points="8 184 92 184 131 145 131 116 61 116 8 25 8 184"/></clipPath><linearGradient id="i" x1="121.95" y1="142.21" x2="136.65" y2="77.91" gradientTransform="matrix(1, 0, 0, -1, 0, 192)" gradientUnits="userSpaceOnUse"><stop offset="0" stop-color="#ea6100" stop-opacity="0.3"/><stop offset="0.7" stop-color="#ea6100" stop-opacity="0"/></linearGradient><clipPath id="m"><polygon class="a" points="96 56 131 116 92 184 184 184 184 56 96 56"/></clipPath><radialGradient id="p" cx="668.2" cy="136" r="84.1" gradientTransform="matrix(1, 0, 0, -1, -576, 192)" gradientUnits="userSpaceOnUse"><stop offset="0" stop-color="#3e2723" stop-opacity="0.2"/><stop offset="1" stop-color="#3e2723" stop-opacity="0"/></radialGradient><clipPath id="r"><polygon class="a" points="22 8 22 48 61 116 96 56 184 56 184 8 22 8"/></clipPath><radialGradient id="u" cx="597.9" cy="143.5" r="78" xlink:href="#p"/><radialGradient id="w" cx="671.8" cy="95.9" r="87.9" gradientTransform="matrix(1, 0, 0, -1, -576, 192)" gradientUnits="userSpaceOnUse"><stop offset="0" stop-color="#263238" stop-opacity="0.2"/><stop offset="1" stop-color="#263238" stop-opacity="0"/></radialGradient><radialGradient id="aa" cx="34.3" cy="160" r="176.8" gradientTransform="matrix(1, 0, 0, -1, 0, 192)" gradientUnits="userSpaceOnUse"><stop offset="0" stop-color="#fff" stop-opacity="0.1"/><stop offset="1" stop-color="#fff" stop-opacity="0"/></radialGradient></defs><title>chrome-3</title><g class="b"><path class="c" d="M22,8V116H61L96,56h88V8H22Z"/><path class="d" d="M22,8V116H61L96,56h88V8H22Z"/></g><g class="b"><path class="e" d="M62,116L23,47H22l39,68h1Z"/></g><g class="b"><path class="f" d="M8,184H92l39-39V116H61L8,25V184Z"/><path class="g" d="M8,184H92l39-39V116H61L8,25V184Z"/></g><g class="b"><path class="h" d="M130,117h-1L91,184h1l38-67h0Z"/></g><g class="b"><g class="i"><path class="j" d="M96,56l35,60L92,184h92V56H96Z"/><path class="k" d="M96,56l35,60L92,184h92V56H96Z"/></g><g class="b"><path class="j" d="M96,56l35,60L92,184h92V56H96Z"/><path class="k" d="M96,56l35,60L92,184h92V56H96Z"/></g><g class="b"><g class="l"><path class="c" d="M22,8V116H61L96,56h88V8H22Z"/><path class="d" d="M22,8V116H61L96,56h88V8H22Z"/></g><g class="b"><path class="m" d="M96,56V77l78-21H96Z"/></g><g class="b"><g class="n"><path class="f" d="M8,184H92l39-39V116H61L8,25V184Z"/><path class="g" d="M8,184H92l39-39V116H61L8,25V184Z"/></g><g class="b"><path class="o" d="M22,49l57,57L61,116Z"/></g><g class="b"><path class="p" d="M92,184l21-78,18,10Z"/></g><g class="b"><circle class="q" cx="96" cy="96" r="40"/><circle class="r" cx="96" cy="96" r="32"/></g><g class="b"><path class="s" d="M96,55A40,40,0,0,0,56,95h0A40,40,0,0,1,96,56h0Z"/><path class="t" d="M131,116a40,40,0,0,1-69,0L8,25H8l53,92a40,40,0,0,0,69,0h0Z"/><path class="u" d="M97,56h0a40,40,0,0,1,0,80h1A40,40,0,0,0,97,56Z"/><path class="v" d="M131,117a39,39,0,0,0,5-20,38,38,0,0,0-2-12,38,38,0,0,1,2,11,40,40,0,0,1-5,20L92,184h1l38-67h0Z"/></g><g class="b"><path class="v" d="M96,9a88,88,0,0,1,88,88h0A88,88,0,0,0,8,96H8A88,88,0,0,1,96,9Z"/><path class="e" d="M96,183a88,88,0,0,0,88-87h0A88,88,0,0,1,8,96H8A88,88,0,0,0,96,183Z"/></g><circle class="w" cx="96" cy="96" r="88"/><path class="a" d="M0,0H192V192H0V0Z"/></g></g></g></svg>
